<svg width="20" height="19" viewBox="0 0 20 19" fill="none" xmlns="http://www.w3.org/2000/svg">
<path d="M8.92069 10.4962C7.60652 9.19252 6.61584 7.73282 5.95763 6.25194C5.81836 5.93883 5.90035 5.57223 6.14409 5.33043L7.68458 4.57718C8.43826 3.8295 7.81768 2.61382 7.15948 1.96085L5.84082 0.652689C4.96359 -0.217563 3.54159 -0.217563 2.66436 0.652689L1.93202 1.3792C1.09971 2.20488 0.31427 3.87524 0.538913 5.05637C1.09378 7.96798 3.77463 11.7052 6.52539 14.434C9.27616 17.1629 11.94 18.4161 14.875 18.9666C16.0656 19.1894 17.2786 18.255 18.1109 17.4293L18.8421 16.7039C19.7193 15.8336 19.7193 14.423 18.8421 13.5527L17.5245 12.2456C16.8663 11.5927 15.7993 11.5927 15.1422 12.2456L14.0873 13.8089C13.8435 14.0507 13.461 13.5527 13.199 13.4379C11.7063 12.7838 10.2349 11.7999 8.92069 10.4962Z" fill="#313640"/>
</svg>
