<svg width="17" height="19" viewBox="0 0 17 19" fill="none" xmlns="http://www.w3.org/2000/svg">
<path d="M6.92578 3.72754V9.45312H9.13477C10.2266 9.45312 11.0602 9.20345 11.6357 8.7041C12.2197 8.19629 12.5117 7.48958 12.5117 6.58398C12.5117 5.68685 12.224 4.98861 11.6484 4.48926C11.0729 3.98145 10.2435 3.72754 9.16016 3.72754H6.92578ZM11.8896 16.5498H6.92578V19H3.0918V16.5498H0.793945V14.1885H3.0918V12.3096H0.793945V9.50391H3.0918V0.680664H10.3027C12.1224 0.680664 13.5908 1.22656 14.708 2.31836C15.8337 3.41016 16.3965 4.81934 16.3965 6.5459C16.3965 8.24707 15.8125 9.64355 14.6445 10.7354C13.4766 11.8271 11.9616 12.373 10.0996 12.373H6.92578V14.1885H11.8896V16.5498Z" fill="#313640"/>
</svg>
